PathFileType	4	(X/Y/Z)	Kaydara	
DataRate	CameraRate	NumFrames	NumMarkers	Units	OrigDataRate	OrigDataStartFrame	OrigNumFrames	
60.00	60.00	4	74	mm	60.00	291	140	
Frame#	Time	Z_lasi			Z_rasi			Z_rpsi			Z_lpsi			Z_fneck			Z_fhead			Z_rhead			Z_lhead			Z_rshld			Z_relbtop			Z_relblow			Z_rwrext			Z_rwrtop			Z_rwrlow			Z_lshld			Z_lelbext			Z_lelblow			Z_lelbtop			Z_lwrext			Z_lwrtop			Z_lwrlow			Z_rtopleg			Z_ltopleg			Z_rkneefr			Z_rkneebk			Z_rkneeis			Z_lkneefr			Z_lknssbk			Z_lkneeis			Z_rankfr			Z_rankis			Z_rankbk			Z_lankfr			Z_lankbk			Z_lankis			N_lasi			N_rasi			N_rpsi			N_lpsi			N_fneck			N_bneck			N_fhead			N_rhead			N_lhead			N_rshld			N_relbtop			N_relbext			N_relblow			N_rwrext			N_rwrtop			N_rwrlow			N_lshld			N_lelbext			N_lelblow			N_lelbtop			N_lwrext			N_lwrtop			N_lwrlow			N_rtopleg			N_rkneefr			N_rkneebk			N_rkneeis			N_lkneefr			N_lknssbk			N_lkneeis			N_rankfr			N_rankis			N_rankbk			N_lankfr			N_lankbk			N_lankis			Z_relbext			Z_bneck			N_ltopleg			
		X1	Y1	Z1	X2	Y2	Z2	X3	Y3	Z3	X4	Y4	Z4	X5	Y5	Z5	X6	Y6	Z6	X7	Y7	Z7	X8	Y8	Z8	X9	Y9	Z9	X10	Y10	Z10	X11	Y11	Z11	X12	Y12	Z12	X13	Y13	Z13	X14	Y14	Z14	X15	Y15	Z15	X16	Y16	Z16	X17	Y17	Z17	X18	Y18	Z18	X19	Y19	Z19	X20	Y20	Z20	X21	Y21	Z21	X22	Y22	Z22	X23	Y23	Z23	X24	Y24	Z24	X25	Y25	Z25	X26	Y26	Z26	X27	Y27	Z27	X28	Y28	Z28	X29	Y29	Z29	X30	Y30	Z30	X31	Y31	Z31	X32	Y32	Z32	X33	Y33	Z33	X34	Y34	Z34	X35	Y35	Z35	X36	Y36	Z36	X37	Y37	Z37	X38	Y38	Z38	X39	Y39	Z39	X40	Y40	Z40	X41	Y41	Z41	X42	Y42	Z42	X43	Y43	Z43	X44	Y44	Z44	X45	Y45	Z45	X46	Y46	Z46	X47	Y47	Z47	X48	Y48	Z48	X49	Y49	Z49	X50	Y50	Z50	X51	Y51	Z51	X52	Y52	Z52	X53	Y53	Z53	X54	Y54	Z54	X55	Y55	Z55	X56	Y56	Z56	X57	Y57	Z57	X58	Y58	Z58	X59	Y59	Z59	X60	Y60	Z60	X61	Y61	Z61	X62	Y62	Z62	X63	Y63	Z63	X64	Y64	Z64	X65	Y65	Z65	X66	Y66	Z66	X67	Y67	Z67	X68	Y68	Z68	X69	Y69	Z69	X70	Y70	Z70	X71	Y71	Z71	X72	Y72	Z72	X73	Y73	Z73	X74	Y74	Z74	

71	4.833	-1605.54642	1024.94972	825.85236	-1452.13852	995.27115	658.37547	-1286.00861	1070.15816	829.48639	-1470.83130	1099.09401	975.13344	-1460.28122	1440.23972	584.20219	-1423.84064	1629.48776	424.30840	-1351.34903	1640.33478	586.27350	-1505.19196	1666.90628	569.26834	-1265.15015	1379.85123	554.74644	-1211.49818	1083.69270	517.19067	-1278.68530	1117.47025	491.06308	-1414.10324	981.24840	369.96296	-1401.24863	1017.81021	335.97023	-1424.44046	1055.54176	346.60629	-1616.18729	1502.27829	787.79739	-1660.66147	1166.08688	937.00233	-1653.16010	1223.10768	885.86868	-1684.65759	1264.91081	943.87878	-1807.84119	1048.07137	910.29968	-1829.02023	1069.58290	867.31613	-1793.24387	1055.16235	836.72333	-1295.44495	877.43690	695.52147	-1614.61304	917.60628	953.11722	-1417.61108	444.62540	669.96750	-1328.56461	481.97811	740.86731	-1433.61588	452.89566	783.90465	-1620.97794	453.13938	844.28986	-1618.35724	489.34917	945.26245	-1517.85812	464.29550	881.17752	-1372.83447	145.25531	716.82396	-1387.02515	150.38849	787.77466	-1315.08942	148.30630	750.47813	-1621.47446	141.92245	941.83266	-1532.56241	146.37591	974.46098	-1561.77505	143.00614	908.57353	-1456.96136	984.88869	-337.62936	-1659.04984	994.96635	-212.02763	-1726.00342	1090.66147	-380.57922	-1565.55618	1071.57608	-484.85703	-1468.20526	1423.28171	-158.95891	-1511.90720	1501.72134	-248.46100	-1468.12515	1583.01727	-37.00200	-1547.93518	1606.56189	-209.73574	-1420.07553	1593.15506	-219.69051	-1662.46582	1385.97397	-88.78412	-1676.73599	1118.40378	30.26314	-1639.74777	1072.53540	-11.13038	-1610.41397	1146.31111	37.42540	-1537.35382	973.19672	222.06905	-1550.46005	1014.82422	243.01605	-1510.52460	1038.86909	230.71190	-1352.54303	1396.94244	-363.31158	-1393.57101	1097.15736	-447.56374	-1307.77008	1127.49634	-442.60376	-1351.69922	1102.08862	-508.84052	-1267.76016	902.40196	-430.48878	-1245.62492	918.99628	-398.35728	-1280.25711	918.72978	-367.08706	-1759.68735	901.38466	-264.97061	-1658.04428	432.07672	-180.21650	-1736.75476	457.96925	-218.40702	-1639.16641	440.33836	-276.48726	-1435.03220	429.63215	-326.15875	-1428.69003	449.08924	-411.06457	-1537.02057	444.66923	-360.09174	-1687.82104	171.05829	-215.58872	-1679.71100	166.51165	-295.89338	-1744.91791	163.63523	-266.13634	-1464.41391	172.16021	-427.00764	-1531.04248	172.31054	-427.83222	-1502.85477	176.32835	-359.05758	-1296.52740	1070.21225	557.15683	-1521.39496	1521.33911	688.41415	-1461.21552	935.66345	-450.04192 
72	4.850	-1608.10120	1026.59386	822.58186	-1452.43820	996.07567	660.53627	-1288.94318	1069.96864	834.60693	-1475.54657	1097.68074	978.22586	-1460.82855	1442.76932	590.41645	-1422.95013	1633.77411	433.78052	-1351.21552	1642.74246	596.05251	-1504.99130	1669.64493	578.59081	-1265.68710	1381.28052	562.65312	-1213.69759	1085.07996	521.09039	-1280.82565	1119.68719	495.35770	-1415.77789	983.89534	372.26177	-1403.21320	1020.49103	338.84239	-1426.20178	1058.45490	349.11282	-1618.63708	1502.28882	793.44444	-1664.88083	1165.25116	939.31206	-1657.43774	1222.70912	887.28081	-1688.81851	1263.63777	947.08611	-1811.50208	1045.71953	915.16190	-1832.90848	1066.77208	871.98624	-1797.36206	1052.32315	841.28593	-1296.36566	878.06900	698.88878	-1617.54852	915.95406	954.14223	-1417.31110	444.82944	671.04324	-1328.97339	481.99406	742.75620	-1433.97339	452.50755	784.89487	-1622.79160	451.51505	845.43053	-1620.07660	488.08720	946.59653	-1519.47357	463.32939	881.93535	-1372.47482	145.38737	717.03125	-1387.06284	150.22249	787.99286	-1314.83307	148.36925	751.03897	-1620.54688	140.76325	944.30756	-1531.49048	145.66850	976.77017	-1560.87814	142.04766	910.25360	-1460.86029	985.59464	-333.19431	-1663.08807	995.13908	-207.50011	-1730.53574	1090.22301	-376.21296	-1569.60587	1071.86577	-479.98386	-1475.25345	1425.01953	-155.73652	-1519.35501	1503.24509	-245.56345	-1476.13266	1584.89471	-33.99694	-1556.20193	1607.75711	-206.71009	-1428.34045	1595.27664	-216.95513	-1669.17465	1386.45630	-85.91504	-1681.09848	1118.77548	33.41348	-1643.80554	1073.11775	-8.02407	-1614.89975	1147.13219	39.97441	-1539.65698	975.55016	224.97040	-1552.31705	1017.12395	245.42986	-1512.93533	1041.32500	233.00097	-1359.41498	1398.44543	-360.39829	-1401.69373	1098.40637	-444.79530	-1315.47226	1128.29147	-440.82417	-1360.64377	1103.53981	-506.48628	-1276.46866	902.89642	-431.00216	-1253.82263	919.14116	-398.84262	-1288.04474	918.54897	-367.67250	-1763.17505	901.21391	-260.06567	-1660.20721	431.46835	-178.81449	-1739.00558	457.33925	-216.89352	-1640.93628	440.40493	-274.60575	-1437.05444	429.69147	-325.04051	-1431.32233	449.66797	-409.86347	-1539.42062	444.51794	-358.64483	-1688.60016	170.74743	-215.05066	-1680.08194	166.49826	-295.22278	-1745.25238	163.68616	-265.94948	-1465.38208	172.73209	-426.91685	-1532.03842	172.54547	-427.59083	-1503.52081	176.42658	-358.74653	-1298.78098	1072.23412	561.18782	-1521.94229	1523.86856	694.62837	-1465.21347	936.21040	-445.84221 
73	4.867	-1611.00983	1025.53268	823.98621	-1453.19366	996.93619	663.24448	-1291.94397	1069.34349	840.18600	-1480.12024	1096.01135	981.18477	-1461.63177	1445.47592	597.23400	-1422.30469	1638.85681	444.07124	-1351.23718	1645.18478	606.57593	-1504.94675	1672.65686	588.98724	-1266.23550	1383.01361	570.87181	-1216.46568	1087.09244	525.59479	-1282.98782	1122.18185	499.65042	-1418.72940	987.08992	375.34412	-1404.68170	1024.20570	341.39450	-1428.19275	1061.78566	351.97556	-1621.20697	1502.40631	799.61563	-1669.07791	1163.75168	943.53737	-1661.36383	1221.12747	892.19322	-1693.28659	1262.22069	950.62431	-1814.94690	1043.28354	919.28368	-1836.78543	1063.97385	876.22482	-1801.12473	1049.79774	845.32913	-1297.46918	878.32893	702.17369	-1620.85800	914.24789	955.05753	-1417.56622	444.97929	671.85867	-1329.62387	482.16789	743.90213	-1434.98779	452.37606	785.61157	-1624.33807	449.88457	846.87042	-1621.00555	486.73988	947.88467	-1520.70007	462.39944	882.45438	-1372.28394	145.44266	717.28874	-1387.16614	150.05762	788.21007	-1314.85641	148.42339	751.48308	-1619.80850	138.71327	946.89041	-1531.43921	145.09967	978.12820	-1560.09857	141.20234	912.72232	-1465.49393	985.84602	-329.13227	-1666.84570	995.28809	-202.74036	-1734.74838	1089.99069	-371.37268	-1573.89725	1071.86974	-475.62794	-1482.62604	1427.38922	-152.76767	-1526.91757	1504.85397	-243.04485	-1484.67194	1587.26547	-31.47812	-1564.54025	1609.50668	-204.45950	-1436.32904	1597.44781	-213.97581	-1676.37314	1387.31812	-83.37906	-1685.55374	1119.45511	36.31022	-1648.64792	1073.81729	-5.38451	-1619.68811	1148.44337	42.25440	-1541.79169	978.54408	227.41379	-1554.26056	1019.94164	247.52375	-1515.53726	1044.49875	235.08511	-1366.01501	1400.14313	-357.31071	-1409.57367	1099.79225	-442.01012	-1322.91977	1129.34776	-438.79311	-1369.11118	1105.18478	-504.04259	-1284.87106	903.54790	-431.70998	-1262.07870	919.15352	-399.61082	-1296.16089	918.50739	-368.09620	-1766.52008	901.13480	-254.85859	-1661.74438	431.04324	-178.05931	-1740.76614	456.80157	-215.65823	-1642.65335	440.50976	-273.83533	-1439.02206	429.64668	-323.71902	-1433.88824	450.33302	-408.44887	-1541.48575	444.28246	-356.59828	-1688.91769	170.32413	-214.47372	-1680.60623	166.33526	-294.63446	-1745.80215	162.87136	-264.86319	-1466.49124	173.39354	-426.72028	-1533.21136	172.79190	-427.16225	-1504.16092	176.45098	-358.54473	-1301.32996	1074.70749	565.52013	-1522.74551	1526.57532	701.44592	-1468.92731	936.66222	-441.40694 
74	4.883	-1613.65875	1024.15314	825.03448	-1454.46442	997.67235	665.89691	-1295.08102	1068.80127	844.49898	-1484.98260	1094.12979	984.26422	-1462.58606	1448.18832	604.49356	-1421.64978	1644.35486	455.51125	-1351.37238	1647.85919	618.33244	-1504.88861	1675.87570	600.52010	-1267.04041	1385.15152	579.78134	-1219.90036	1089.37294	530.63911	-1285.13901	1124.90410	504.38438	-1420.58655	990.69023	377.51850	-1407.02225	1028.15323	344.18484	-1430.75928	1065.56412	355.08995	-1624.18121	1502.38159	806.42647	-1673.34976	1162.26799	947.07016	-1665.70587	1219.81255	895.55992	-1697.48825	1260.56786	954.32335	-1818.95630	1041.10077	923.38936	-1840.85098	1061.48056	880.15083	-1805.06119	1047.20360	849.25179	-1298.89084	878.73306	705.15472	-1624.25247	912.42691	955.61295	-1418.29849	445.05486	672.28134	-1331.27777	482.15893	745.19417	-1436.49200	452.06398	785.87677	-1625.48218	448.20789	848.05702	-1621.71097	485.09605	949.36211	-1521.78619	461.01372	883.45451	-1372.25159	145.48875	717.48878	-1387.53677	149.86300	788.26454	-1314.95911	148.62394	752.05620	-1619.90784	136.97967	947.55295	-1531.34613	143.58856	978.75221	-1560.38910	139.81277	913.24028	-1468.57986	987.11090	-324.19975	-1670.25497	995.50293	-197.93419	-1738.63846	1089.97917	-366.43230	-1577.94479	1071.95755	-471.17645	-1490.08926	1430.11169	-150.16552	-1534.48914	1506.72638	-241.04109	-1493.57834	1590.28046	-29.42467	-1573.08304	1611.43768	-202.88506	-1445.09094	1600.42328	-212.10951	-1683.99887	1388.56415	-81.21620	-1690.17136	1120.60120	39.14933	-1653.29681	1075.16098	-2.80612	-1624.41330	1150.09041	44.14370	-1543.82919	981.92162	229.49623	-1556.64536	1023.32397	249.58439	-1518.08334	1048.12744	236.84521	-1372.49725	1401.93069	-355.21721	-1417.15134	1101.20224	-439.14276	-1330.23972	1130.54596	-436.77822	-1377.32208	1107.00905	-501.54606	-1293.21930	904.26651	-432.65221	-1270.51300	919.19884	-400.05028	-1305.16586	917.33704	-369.38244	-1769.45755	901.02806	-249.90234	-1663.13522	430.87162	-177.89421	-1742.55554	456.33522	-214.66724	-1644.98642	440.52109	-274.09573	-1441.09222	429.74808	-322.10907	-1436.34216	451.09596	-406.68633	-1543.77686	444.39491	-354.64844	-1689.09286	170.01902	-214.25459	-1681.24527	166.18418	-294.38099	-1746.23047	162.40250	-264.34273	-1467.55157	174.07234	-426.56975	-1534.18549	173.09999	-426.54491	-1504.95224	176.58562	-358.09002	-1304.20685	1077.42867	570.34313	-1523.69980	1529.28772	708.70544	-1472.36099	937.23152	-436.69209 
